{
	"asset":{
		"generator":"Khronos glTF Blender I/O v4.0.44",
		"version":"2.0"
	},
	"scene":0,
	"scenes":[
		{
			"name":"Scene",
			"nodes":[
				10
			]
		}
	],
	"nodes":[
		{
			"mesh":0,
			"name":"cooldown",
			"translation":[
				0,
				0,
				-0.23204196989536285
			]
		},
		{
			"mesh":1,
			"name":"standby",
			"translation":[
				0,
				0,
				-0.24672366678714752
			]
		},
		{
			"mesh":2,
			"name":"using",
			"translation":[
				0,
				0,
				-0.24623478949069977
			]
		},
		{
			"children":[
				0,
				1,
				2
			],
			"mesh":3,
			"name":"background",
			"translation":[
				0,
				1.362262487411499,
				0.36909860372543335
			]
		},
		{
			"mesh":4,
			"name":"Button",
			"translation":[
				-2.120380401611328,
				1.362262487411499,
				-0.0807681679725647
			]
		},
		{
			"mesh":5,
			"name":"Cover",
			"rotation":[
				0,
				0,
				-0.03489946573972702,
				0.9993908405303955
			],
			"translation":[
				0.0010826640063896775,
				0.0006569274119101465,
				-0.21283984184265137
			]
		},
		{
			"mesh":6,
			"name":"Icon",
			"rotation":[
				-0.5,
				-0.5,
				-0.5,
				0.5000000596046448
			],
			"scale":[
				0.2627543807029724,
				0.2627544105052948,
				0.2627544105052948
			],
			"translation":[
				0,
				-0.002572361147031188,
				0.11150979995727539
			]
		},
		{
			"mesh":7,
			"name":"Line",
			"rotation":[
				0,
				0,
				-0.21643957495689392,
				0.9762960076332092
			],
			"translation":[
				-0.03431456908583641,
				0.015279839746654034,
				-0.016530515626072884
			]
		},
		{
			"children":[
				5,
				6,
				7
			],
			"mesh":8,
			"name":"Core",
			"translation":[
				0,
				-0.04215710610151291,
				-1.182346224784851
			]
		},
		{
			"mesh":9,
			"name":"Object",
			"translation":[
				-2.120380401611328,
				1.362262487411499,
				-0.0807681679725647
			]
		},
		{
			"children":[
				3,
				4,
				8,
				9
			],
			"mesh":10,
			"name":"Watch",
			"rotation":[
				0.7071068286895752,
				0,
				0,
				0.7071068286895752
			],
			"translation":[
				0,
				1.3489738702774048,
				0
			]
		}
	],
	"animations":[
		{
			"channels":[
				{
					"sampler":0,
					"target":{
						"node":9,
						"path":"translation"
					}
				}
			],
			"name":"ObjectAction",
			"samplers":[
				{
					"input":43,
					"interpolation":"LINEAR",
					"output":44
				}
			]
		}
	],
	"materials":[
		{
			"doubleSided":true,
			"name":"Material.002",
			"pbrMetallicRoughness":{
				"baseColorTexture":{
					"index":0
				},
				"metallicFactor":0,
				"roughnessFactor":0.5
			}
		},
		{
			"doubleSided":true,
			"name":"Material.001",
			"pbrMetallicRoughness":{
				"baseColorTexture":{
					"index":1
				},
				"metallicFactor":0,
				"roughnessFactor":0.5
			}
		},
		{
			"doubleSided":true,
			"name":"Material.003",
			"pbrMetallicRoughness":{
				"baseColorTexture":{
					"index":2
				},
				"metallicFactor":0,
				"roughnessFactor":0.5
			}
		},
		{
			"doubleSided":true,
			"name":"Material.005",
			"pbrMetallicRoughness":{
				"baseColorTexture":{
					"index":3
				},
				"metallicFactor":0,
				"roughnessFactor":0.5
			}
		},
		{
			"doubleSided":true,
			"name":"Material.004",
			"pbrMetallicRoughness":{
				"baseColorTexture":{
					"index":4
				},
				"metallicFactor":0,
				"roughnessFactor":0.5
			}
		},
		{
			"doubleSided":true,
			"name":"Material",
			"pbrMetallicRoughness":{
				"baseColorTexture":{
					"index":5
				},
				"metallicFactor":0,
				"roughnessFactor":0.5
			}
		}
	],
	"meshes":[
		{
			"name":"Torus.009",
			"primitives":[
				{
					"attributes":{
						"POSITION":0,
						"NORMAL":1,
						"TEXCOORD_0":2
					},
					"indices":3,
					"material":0
				}
			]
		},
		{
			"name":"Torus.005",
			"primitives":[
				{
					"attributes":{
						"POSITION":4,
						"NORMAL":5,
						"TEXCOORD_0":6
					},
					"indices":7,
					"material":0
				}
			]
		},
		{
			"name":"Torus.008",
			"primitives":[
				{
					"attributes":{
						"POSITION":8,
						"NORMAL":9,
						"TEXCOORD_0":10
					},
					"indices":7,
					"material":0
				}
			]
		},
		{
			"name":"Torus.006",
			"primitives":[
				{
					"attributes":{
						"POSITION":11,
						"NORMAL":12,
						"TEXCOORD_0":13
					},
					"indices":14,
					"material":0
				}
			]
		},
		{
			"name":"Torus.004",
			"primitives":[
				{
					"attributes":{
						"POSITION":15,
						"NORMAL":16,
						"TEXCOORD_0":17
					},
					"indices":18,
					"material":1
				}
			]
		},
		{
			"name":"Torus.001",
			"primitives":[
				{
					"attributes":{
						"POSITION":19,
						"NORMAL":20,
						"TEXCOORD_0":21
					},
					"indices":22,
					"material":2
				}
			]
		},
		{
			"name":"Sphere.001",
			"primitives":[
				{
					"attributes":{
						"POSITION":23,
						"NORMAL":24,
						"TEXCOORD_0":25
					},
					"indices":26,
					"material":3
				}
			]
		},
		{
			"name":"Torus.003",
			"primitives":[
				{
					"attributes":{
						"POSITION":27,
						"NORMAL":28,
						"TEXCOORD_0":29
					},
					"indices":30,
					"material":4
				}
			]
		},
		{
			"name":"Torus.002",
			"primitives":[
				{
					"attributes":{
						"POSITION":31,
						"NORMAL":32,
						"TEXCOORD_0":33
					},
					"indices":34,
					"material":0
				}
			]
		},
		{
			"name":"Torus.010",
			"primitives":[
				{
					"attributes":{
						"POSITION":35,
						"NORMAL":36,
						"TEXCOORD_0":37
					},
					"indices":38,
					"material":1
				}
			]
		},
		{
			"name":"Torus",
			"primitives":[
				{
					"attributes":{
						"POSITION":39,
						"NORMAL":40,
						"TEXCOORD_0":41
					},
					"indices":42,
					"material":5
				}
			]
		}
	],
	"textures":[
		{
			"sampler":0,
			"source":0
		},
		{
			"sampler":0,
			"source":0
		},
		{
			"sampler":0,
			"source":0
		},
		{
			"sampler":1,
			"source":1
		},
		{
			"sampler":0,
			"source":0
		},
		{
			"sampler":0,
			"source":0
		}
	],
	"images":[
		{
			"mimeType":"image/png",
			"name":"Ommitrix",
			"uri":"Ommitrix.png"
		},
		{
			"mimeType":"image/png",
			"name":"icon",
			"uri":"icon.png"
		}
	],
	"accessors":[
		{
			"bufferView":0,
			"componentType":5126,
			"count":96,
			"max":[
				0.5808600783348083,
				-0.9936257004737854,
				-1.5550705194473267
			],
			"min":[
				-0.5808600783348083,
				-1.8150858879089355,
				-1.5550705194473267
			],
			"type":"VEC3"
		},
		{
			"bufferView":1,
			"componentType":5126,
			"count":96,
			"type":"VEC3"
		},
		{
			"bufferView":2,
			"componentType":5126,
			"count":96,
			"type":"VEC2"
		},
		{
			"bufferView":3,
			"componentType":5123,
			"count":282,
			"type":"SCALAR"
		},
		{
			"bufferView":4,
			"componentType":5126,
			"count":96,
			"max":[
				0.5808600783348083,
				-0.9936257004737854,
				-1.5550705194473267
			],
			"min":[
				-0.5808600783348083,
				-1.8150858879089355,
				-1.5550705194473267
			],
			"type":"VEC3"
		},
		{
			"bufferView":5,
			"componentType":5126,
			"count":96,
			"type":"VEC3"
		},
		{
			"bufferView":6,
			"componentType":5126,
			"count":96,
			"type":"VEC2"
		},
		{
			"bufferView":7,
			"componentType":5123,
			"count":282,
			"type":"SCALAR"
		},
		{
			"bufferView":8,
			"componentType":5126,
			"count":96,
			"max":[
				0.5808600783348083,
				-0.9936257004737854,
				-1.5550705194473267
			],
			"min":[
				-0.5808600783348083,
				-1.8150858879089355,
				-1.5550705194473267
			],
			"type":"VEC3"
		},
		{
			"bufferView":9,
			"componentType":5126,
			"count":96,
			"type":"VEC3"
		},
		{
			"bufferView":10,
			"componentType":5126,
			"count":96,
			"type":"VEC2"
		},
		{
			"bufferView":11,
			"componentType":5126,
			"count":32,
			"max":[
				0.5808600783348083,
				-0.8234958052635193,
				-1.7867431640625
			],
			"min":[
				-0.5808600783348083,
				-1.9852159023284912,
				-1.7867431640625
			],
			"type":"VEC3"
		},
		{
			"bufferView":12,
			"componentType":5126,
			"count":32,
			"type":"VEC3"
		},
		{
			"bufferView":13,
			"componentType":5126,
			"count":32,
			"type":"VEC2"
		},
		{
			"bufferView":14,
			"componentType":5123,
			"count":90,
			"type":"SCALAR"
		},
		{
			"bufferView":15,
			"componentType":5126,
			"count":384,
			"max":[
				1.3364113569259644,
				-1.2562350034713745,
				-0.7268476486206055
			],
			"min":[
				1.0764912366867065,
				-1.5524765253067017,
				-0.9867678284645081
			],
			"type":"VEC3"
		},
		{
			"bufferView":16,
			"componentType":5126,
			"count":384,
			"type":"VEC3"
		},
		{
			"bufferView":17,
			"componentType":5126,
			"count":384,
			"type":"VEC2"
		},
		{
			"bufferView":18,
			"componentType":5123,
			"count":768,
			"type":"SCALAR"
		},
		{
			"bufferView":19,
			"componentType":5126,
			"count":9920,
			"max":[
				0.7517738342285156,
				0.752217173576355,
				0.06993734836578369
			],
			"min":[
				-0.7516601085662842,
				-0.7521606683731079,
				-0.05637013912200928
			],
			"type":"VEC3"
		},
		{
			"bufferView":20,
			"componentType":5126,
			"count":9920,
			"type":"VEC3"
		},
		{
			"bufferView":21,
			"componentType":5126,
			"count":9920,
			"type":"VEC2"
		},
		{
			"bufferView":22,
			"componentType":5123,
			"count":15360,
			"type":"SCALAR"
		},
		{
			"bufferView":23,
			"componentType":5126,
			"count":380,
			"max":[
				1.179709792137146,
				1.2404199838638306,
				1.2404201030731201
			],
			"min":[
				-1.179709553718567,
				-1.2404199838638306,
				-1.2404201030731201
			],
			"type":"VEC3"
		},
		{
			"bufferView":24,
			"componentType":5126,
			"count":380,
			"type":"VEC3"
		},
		{
			"bufferView":25,
			"componentType":5126,
			"count":380,
			"type":"VEC2"
		},
		{
			"bufferView":26,
			"componentType":5123,
			"count":540,
			"type":"SCALAR"
		},
		{
			"bufferView":27,
			"componentType":5126,
			"count":7936,
			"max":[
				0.6209301352500916,
				0.5767759680747986,
				0.29573023319244385
			],
			"min":[
				-0.5569586753845215,
				-0.6137367486953735,
				-0.21011221408843994
			],
			"type":"VEC3"
		},
		{
			"bufferView":28,
			"componentType":5126,
			"count":7936,
			"type":"VEC3"
		},
		{
			"bufferView":29,
			"componentType":5126,
			"count":7936,
			"type":"VEC2"
		},
		{
			"bufferView":30,
			"componentType":5123,
			"count":13920,
			"type":"SCALAR"
		},
		{
			"bufferView":31,
			"componentType":5126,
			"count":216,
			"max":[
				0.5808600783348083,
				0.5809239149093628,
				0.2807217836380005
			],
			"min":[
				-0.5808600783348083,
				-0.5807961821556091,
				-0.22959758341312408
			],
			"type":"VEC3"
		},
		{
			"bufferView":32,
			"componentType":5126,
			"count":216,
			"type":"VEC3"
		},
		{
			"bufferView":33,
			"componentType":5126,
			"count":216,
			"type":"VEC2"
		},
		{
			"bufferView":34,
			"componentType":5123,
			"count":420,
			"type":"SCALAR"
		},
		{
			"bufferView":35,
			"componentType":5126,
			"count":1984,
			"max":[
				1.2373716831207275,
				-1.3224213123321533,
				-0.8283252120018005
			],
			"min":[
				1.0750635862350464,
				-1.4847294092178345,
				-0.990633487701416
			],
			"type":"VEC3"
		},
		{
			"bufferView":36,
			"componentType":5126,
			"count":1984,
			"type":"VEC3"
		},
		{
			"bufferView":37,
			"componentType":5126,
			"count":1984,
			"type":"VEC2"
		},
		{
			"bufferView":38,
			"componentType":5123,
			"count":2880,
			"type":"SCALAR"
		},
		{
			"bufferView":39,
			"componentType":5126,
			"count":8138,
			"max":[
				1.370714783668518,
				1.605994462966919,
				1.2820074558258057
			],
			"min":[
				-1.3707150220870972,
				-1.601151704788208,
				-1.3420538902282715
			],
			"type":"VEC3"
		},
		{
			"bufferView":40,
			"componentType":5126,
			"count":8138,
			"type":"VEC3"
		},
		{
			"bufferView":41,
			"componentType":5126,
			"count":8138,
			"type":"VEC2"
		},
		{
			"bufferView":42,
			"componentType":5123,
			"count":12864,
			"type":"SCALAR"
		},
		{
			"bufferView":43,
			"componentType":5126,
			"count":1,
			"max":[
				0.041666666666666664
			],
			"min":[
				0.041666666666666664
			],
			"type":"SCALAR"
		},
		{
			"bufferView":44,
			"componentType":5126,
			"count":1,
			"type":"VEC3"
		}
	],
	"bufferViews":[
		{
			"buffer":0,
			"byteLength":1152,
			"byteOffset":0,
			"target":34962
		},
		{
			"buffer":0,
			"byteLength":1152,
			"byteOffset":1152,
			"target":34962
		},
		{
			"buffer":0,
			"byteLength":768,
			"byteOffset":2304,
			"target":34962
		},
		{
			"buffer":0,
			"byteLength":564,
			"byteOffset":3072,
			"target":34963
		},
		{
			"buffer":0,
			"byteLength":1152,
			"byteOffset":3636,
			"target":34962
		},
		{
			"buffer":0,
			"byteLength":1152,
			"byteOffset":4788,
			"target":34962
		},
		{
			"buffer":0,
			"byteLength":768,
			"byteOffset":5940,
			"target":34962
		},
		{
			"buffer":0,
			"byteLength":564,
			"byteOffset":6708,
			"target":34963
		},
		{
			"buffer":0,
			"byteLength":1152,
			"byteOffset":7272,
			"target":34962
		},
		{
			"buffer":0,
			"byteLength":1152,
			"byteOffset":8424,
			"target":34962
		},
		{
			"buffer":0,
			"byteLength":768,
			"byteOffset":9576,
			"target":34962
		},
		{
			"buffer":0,
			"byteLength":384,
			"byteOffset":10344,
			"target":34962
		},
		{
			"buffer":0,
			"byteLength":384,
			"byteOffset":10728,
			"target":34962
		},
		{
			"buffer":0,
			"byteLength":256,
			"byteOffset":11112,
			"target":34962
		},
		{
			"buffer":0,
			"byteLength":180,
			"byteOffset":11368,
			"target":34963
		},
		{
			"buffer":0,
			"byteLength":4608,
			"byteOffset":11548,
			"target":34962
		},
		{
			"buffer":0,
			"byteLength":4608,
			"byteOffset":16156,
			"target":34962
		},
		{
			"buffer":0,
			"byteLength":3072,
			"byteOffset":20764,
			"target":34962
		},
		{
			"buffer":0,
			"byteLength":1536,
			"byteOffset":23836,
			"target":34963
		},
		{
			"buffer":0,
			"byteLength":119040,
			"byteOffset":25372,
			"target":34962
		},
		{
			"buffer":0,
			"byteLength":119040,
			"byteOffset":144412,
			"target":34962
		},
		{
			"buffer":0,
			"byteLength":79360,
			"byteOffset":263452,
			"target":34962
		},
		{
			"buffer":0,
			"byteLength":30720,
			"byteOffset":342812,
			"target":34963
		},
		{
			"buffer":0,
			"byteLength":4560,
			"byteOffset":373532,
			"target":34962
		},
		{
			"buffer":0,
			"byteLength":4560,
			"byteOffset":378092,
			"target":34962
		},
		{
			"buffer":0,
			"byteLength":3040,
			"byteOffset":382652,
			"target":34962
		},
		{
			"buffer":0,
			"byteLength":1080,
			"byteOffset":385692,
			"target":34963
		},
		{
			"buffer":0,
			"byteLength":95232,
			"byteOffset":386772,
			"target":34962
		},
		{
			"buffer":0,
			"byteLength":95232,
			"byteOffset":482004,
			"target":34962
		},
		{
			"buffer":0,
			"byteLength":63488,
			"byteOffset":577236,
			"target":34962
		},
		{
			"buffer":0,
			"byteLength":27840,
			"byteOffset":640724,
			"target":34963
		},
		{
			"buffer":0,
			"byteLength":2592,
			"byteOffset":668564,
			"target":34962
		},
		{
			"buffer":0,
			"byteLength":2592,
			"byteOffset":671156,
			"target":34962
		},
		{
			"buffer":0,
			"byteLength":1728,
			"byteOffset":673748,
			"target":34962
		},
		{
			"buffer":0,
			"byteLength":840,
			"byteOffset":675476,
			"target":34963
		},
		{
			"buffer":0,
			"byteLength":23808,
			"byteOffset":676316,
			"target":34962
		},
		{
			"buffer":0,
			"byteLength":23808,
			"byteOffset":700124,
			"target":34962
		},
		{
			"buffer":0,
			"byteLength":15872,
			"byteOffset":723932,
			"target":34962
		},
		{
			"buffer":0,
			"byteLength":5760,
			"byteOffset":739804,
			"target":34963
		},
		{
			"buffer":0,
			"byteLength":97656,
			"byteOffset":745564,
			"target":34962
		},
		{
			"buffer":0,
			"byteLength":97656,
			"byteOffset":843220,
			"target":34962
		},
		{
			"buffer":0,
			"byteLength":65104,
			"byteOffset":940876,
			"target":34962
		},
		{
			"buffer":0,
			"byteLength":25728,
			"byteOffset":1005980,
			"target":34963
		},
		{
			"buffer":0,
			"byteLength":4,
			"byteOffset":1031708
		},
		{
			"buffer":0,
			"byteLength":12,
			"byteOffset":1031712
		}
	],
	"samplers":[
		{
			"magFilter":9729,
			"minFilter":9987
		},
		{
			"magFilter":9728,
			"minFilter":9984
		}
	],
	"buffers":[
		{
			"byteLength":1031724,
			"uri":"Omnitrix.bin"
		}
	]
}
